<?xml version="1.0" encoding="UTF-8"?>
<svg id="Layer_1" xmlns="http://www.w3.org/2000/svg" version="1.1" viewBox="0 0 631.6 473.3">
  <!-- Generator: Adobe Illustrator 29.1.0, SVG Export Plug-In . SVG Version: 2.1.0 Build 142)  -->
  <defs>
    <style>
      .st0, .st1 {
        fill: none;
      }

      .st2 {
        fill: #ff6700;
      }

      .st3 {
        font-size: 6px;
      }

      .st3, .st4, .st5 {
        font-family: Arial-Black, 'Arial Black';
        font-weight: 800;
        isolation: isolate;
      }

      .st6 {
        fill: #020202;
      }

      .st7 {
        fill: #fff;
      }

      .st7, .st1, .st8, .st9, .st10 {
        stroke: #000;
        stroke-miterlimit: 10;
      }

      .st8 {
        fill: #a3f588;
      }

      .st9 {
        fill: #a0dfff;
        stroke-width: .8px;
      }

      .st11 {
        fill: #898989;
      }

      .st10 {
        fill: #d58e00;
      }

      .st4 {
        font-size: 100px;
      }

      .st5 {
        font-size: 12px;
      }
    </style>
  </defs>
  <g>
    <path class="st2" d="M179.3,139.2C79.9,117.9,37-6,108.1,66.6s261.3,113.2,71.2,72.6Z"/>
    <path class="st7" d="M597.4,395.5H33.6c-15.5,0-28-12.5-28-28V32.2c0-15.5,12.5-28,28-28h563.7c15.5,0,28,12.5,28,28v335.2c.1,15.5-12.5,28.1-27.9,28.1Z"/>
    <ellipse class="st6" cx="526.6" cy="403.2" rx="59.8" ry="66.6"/>
    <ellipse class="st6" cx="106.8" cy="403.2" rx="59.8" ry="66.6"/>
    <circle class="st11" cx="106.8" cy="403.2" r="41.4" transform="translate(-303 481.1) rotate(-85.9)"/>
    <circle class="st11" cx="526.6" cy="403.2" r="41.4" transform="translate(44.3 858.4) rotate(-80.8)"/>
    <path class="st9" d="M117,192.8H22.6c-9.4,0-17-7.6-17-17V60.8c0-9.4,7.6-17,17-17h94.4c9.4,0,17,7.6,17,17v115c0,9.4-7.6,17-17,17Z"/>
    <text class="st4" transform="translate(148.2 309.4)"><tspan x="0" y="0">RAHIB</tspan></text>
    <path class="st0" d="M-523.1-519.4c62.7,11.4,109.5,62.1,152.3,109.3C-250.7-277.6-125.1-150.1,5.6-28.1c-12.6-20-25.2-39.9-37.8-59.8"/>
  </g>
  <g>
    <line class="st1" x1="246.7" y1="140.8" x2="249.5" y2="151.4"/>
    <rect class="st10" x="275.4" y="138.5" width="80.2" height="74.9"/>
    <rect class="st8" x="275.4" y="147.4" width="80.2" height="5.3"/>
    <text class="st5" transform="translate(294 175.9)"><tspan x="0" y="0">RAHIB</tspan></text>
  </g>
  <g>
    <rect class="st10" x="355.6" y="138.5" width="80.2" height="74.9"/>
    <rect class="st8" x="355.6" y="147.4" width="80.2" height="5.3"/>
    <text class="st5" transform="translate(374.2 175.9)"><tspan x="0" y="0">RAHIB</tspan></text>
  </g>
  <g>
    <rect class="st10" x="195.1" y="138.5" width="80.2" height="74.9"/>
    <rect class="st8" x="195.1" y="147.4" width="80.2" height="5.3"/>
    <text class="st5" transform="translate(213.7 175.9)"><tspan x="0" y="0">RAHIB</tspan></text>
  </g>
  <g>
    <rect class="st10" x="195.1" y="63.6" width="80.2" height="74.9"/>
    <rect class="st8" x="195.1" y="72.5" width="80.2" height="5.3"/>
    <text class="st5" transform="translate(213.7 101)"><tspan x="0" y="0">RAHIB</tspan></text>
    <text class="st3" transform="translate(600.2 99.6)"><tspan x="0" y="0">RAHIB</tspan></text>
    <text class="st5" transform="translate(142.4 179.4)"><tspan x="0" y="0">RAHIB</tspan></text>
  </g>
  <g>
    <rect class="st10" x="435.9" y="138.5" width="80.2" height="74.9"/>
    <rect class="st8" x="435.9" y="147.4" width="80.2" height="5.3"/>
    <text class="st5" transform="translate(454.5 175.9)"><tspan x="0" y="0">RAHIB</tspan></text>
  </g>
  <g>
    <rect class="st10" x="275.4" y="63.6" width="80.2" height="74.9"/>
    <rect class="st8" x="275.4" y="72.5" width="80.2" height="5.3"/>
    <text class="st5" transform="translate(294 101)"><tspan x="0" y="0">RAHIB</tspan></text>
  </g>
  <g>
    <rect class="st10" x="355.6" y="63.6" width="80.2" height="74.9"/>
    <rect class="st8" x="355.6" y="72.5" width="80.2" height="5.3"/>
    <text class="st5" transform="translate(374.2 101)"><tspan x="0" y="0">RAHIB</tspan></text>
  </g>
  <g>
    <rect class="st10" x="435.9" y="63.6" width="80.2" height="74.9"/>
    <rect class="st8" x="435.9" y="72.5" width="80.2" height="5.3"/>
    <text class="st5" transform="translate(454.5 101)"><tspan x="0" y="0">RAHIB</tspan></text>
  </g>
  <g>
    <rect class="st10" x="515.1" y="138.5" width="80.2" height="74.9"/>
    <rect class="st8" x="515.1" y="147.4" width="80.2" height="5.3"/>
    <text class="st5" transform="translate(533.7 175.9)"><tspan x="0" y="0">RAHIB</tspan></text>
  </g>
  <g>
    <rect class="st10" x="515.1" y="63.6" width="80.2" height="74.9"/>
    <rect class="st8" x="515.1" y="72.5" width="80.2" height="5.3"/>
    <text class="st5" transform="translate(533.7 101)"><tspan x="0" y="0">RAHIB</tspan></text>
  </g>
  <rect class="st10" x="595.4" y="63.6" width="30" height="74.9"/>
  <rect class="st10" x="595.4" y="138.5" width="30" height="74.9"/>
  <rect class="st10" x="134" y="63.6" width="61.1" height="74.9"/>
  <rect class="st10" x="134" y="138.5" width="61.1" height="74.9"/>
  <text class="st3" transform="translate(600.6 175.1)"><tspan x="0" y="0">RAHIB</tspan></text>
  <text class="st3" transform="translate(600.6 101)"><tspan x="0" y="0">RAHIB</tspan></text>
  <rect class="st8" x="134" y="72.5" width="61.1" height="5.3"/>
  <rect class="st8" x="134" y="147.4" width="61.1" height="5.3"/>
  <rect class="st8" x="595.4" y="147.4" width="30" height="5.3"/>
  <rect class="st8" x="595.4" y="72.5" width="30" height="5.3"/>
  <text class="st5" transform="translate(143.3 179.4)"><tspan x="0" y="0">RAHIB</tspan></text>
  <text class="st5" transform="translate(143.3 101)"><tspan x="0" y="0">RAHIB</tspan></text>
</svg>